<svg width="375" height="812" viewBox="0 0 375 812" fill="none" xmlns="http://www.w3.org/2000/svg">
<g clip-path="url(#clip0_61385:181)">
<rect width="375" height="812" fill="#202024"/>
<circle cx="278" cy="99" r="300" transform="rotate(-180 278 99)" fill="url(#paint0_radial_61385:181)"/>
<circle cx="98" cy="99" r="300" transform="rotate(-180 98 99)" fill="url(#paint1_radial_61385:181)"/>
<mask id="mask0_61385:181" style="mask-type:alpha" maskUnits="userSpaceOnUse" x="0" y="-1" width="375" height="812">
<rect y="-1" width="375" height="812" fill="#202024"/>
</mask>
<g mask="url(#mask0_61385:181)">
<path d="M375 167.101V-311.699L187.478 -419.486L-0.0446777 -311.699V167.101L187.478 274.894L375 167.101Z" fill="url(#paint2_linear_61385:181)"/>
<g style="mix-blend-mode:luminosity" opacity="0.4">
<path d="M1.83663 60.3931V167.797L95.1275 221.505L188.418 167.797V60.3931L95.1275 6.68577L1.83663 60.3931Z" fill="url(#paint3_linear_61385:181)"/>
<path d="M1.83663 -47.0166V60.3877L95.1275 114.095L188.418 60.3877V-47.0166L95.1275 -100.724L1.83663 -47.0166Z" fill="url(#paint4_linear_61385:181)"/>
<path d="M281.709 -100.696V6.70821L188.418 60.4155L95.1274 6.70821V-100.696L188.418 -154.403L281.709 -100.696Z" fill="url(#paint5_linear_61385:181)"/>
<path d="M188.418 167.797V60.3927L281.709 6.68539L375 60.3927V167.797L281.709 221.504L188.418 167.797Z" fill="url(#paint6_linear_61385:181)"/>
<path d="M375 -47.0166V60.3877L281.709 114.095L188.418 60.3877V-47.0166L281.709 -100.724L375 -47.0166Z" fill="url(#paint7_linear_61385:181)"/>
<path d="M281.709 221.527V114.123L188.418 60.4155L95.1274 114.123L95.1274 221.527L188.418 275.235L281.709 221.527Z" fill="url(#paint8_linear_61385:181)"/>
</g>
</g>
</g>
<defs>
<radialGradient id="paint0_radial_61385:181" cx="0" cy="0" r="1" gradientUnits="userSpaceOnUse" gradientTransform="translate(278 99) rotate(90) scale(300)">
<stop stop-color="#FFC323"/>
<stop offset="1" stop-color="#121214" stop-opacity="0"/>
</radialGradient>
<radialGradient id="paint1_radial_61385:181" cx="0" cy="0" r="1" gradientUnits="userSpaceOnUse" gradientTransform="translate(98 99) rotate(90) scale(300)">
<stop stop-color="#FF3D6E"/>
<stop offset="1" stop-color="#121214" stop-opacity="0"/>
</radialGradient>
<linearGradient id="paint2_linear_61385:181" x1="-67.9497" y1="57.9385" x2="436.115" y2="231.357" gradientUnits="userSpaceOnUse">
<stop stop-color="#FF008E"/>
<stop offset="1" stop-color="#FFCD1E"/>
</linearGradient>
<linearGradient id="paint3_linear_61385:181" x1="95.1275" y1="216.565" x2="2.23833" y2="58.047" gradientUnits="userSpaceOnUse">
<stop stop-color="#8257E5"/>
<stop offset="1" stop-color="#FF008E" stop-opacity="0"/>
</linearGradient>
<linearGradient id="paint4_linear_61385:181" x1="95.1275" y1="109.155" x2="2.23831" y2="-49.3627" gradientUnits="userSpaceOnUse">
<stop stop-color="#8257E5"/>
<stop offset="1" stop-color="#FF008E" stop-opacity="0"/>
</linearGradient>
<linearGradient id="paint5_linear_61385:181" x1="95.1275" y1="-106.732" x2="281.421" y2="5.68569" gradientUnits="userSpaceOnUse">
<stop stop-color="#FF008E" stop-opacity="0"/>
<stop offset="1" stop-color="#FFCD1E"/>
</linearGradient>
<linearGradient id="paint6_linear_61385:181" x1="375" y1="173.833" x2="188.706" y2="61.4152" gradientUnits="userSpaceOnUse">
<stop stop-color="#FF008E" stop-opacity="0"/>
<stop offset="1" stop-color="#FFCD1E"/>
</linearGradient>
<linearGradient id="paint7_linear_61385:181" x1="281.709" y1="109.155" x2="374.598" y2="-49.3627" gradientUnits="userSpaceOnUse">
<stop stop-color="#8257E5"/>
<stop offset="1" stop-color="#FF008E" stop-opacity="0"/>
</linearGradient>
<linearGradient id="paint8_linear_61385:181" x1="188.418" y1="65.3552" x2="281.307" y2="223.873" gradientUnits="userSpaceOnUse">
<stop stop-color="#8257E5"/>
<stop offset="1" stop-color="#FF008E" stop-opacity="0"/>
</linearGradient>
<clipPath id="clip0_61385:181">
<rect width="375" height="812" fill="white"/>
</clipPath>
</defs>
</svg>
